<svg xmlns="http://www.w3.org/2000/svg" xmlns:xlink="http://www.w3.org/1999/xlink" width="50" zoomAndPan="magnify" viewBox="0 0 37.5 37.499999" height="50" preserveAspectRatio="xMidYMid meet" version="1.0"><defs><clipPath id="6ba7d38607"><path d="M 17 28 L 34.339844 28 L 34.339844 37 L 17 37 Z M 17 28 " clip-rule="nonzero"/></clipPath></defs><g clip-path="url(#6ba7d38607)"><path fill="#95de23" d="M 17.628906 36.765625 C 19.171875 33.8125 21.707031 31.390625 24.726562 29.984375 C 27.746094 28.578125 31.230469 28.195312 34.484375 28.914062 C 30.496094 33.910156 24.019531 37.007812 17.628906 36.765625 " fill-opacity="1" fill-rule="nonzero"/></g><path fill="#95de23" d="M 12.503906 34.609375 C 14.300781 29.796875 14.464844 24.398438 12.964844 19.488281 C 11.464844 14.578125 8.3125 10.191406 4.136719 7.207031 C 2.519531 16.925781 5.648438 27.535156 12.503906 34.609375 " fill-opacity="1" fill-rule="nonzero"/><path fill="#95de23" d="M 16.148438 34.464844 C 14.378906 28.039062 14.789062 21.039062 17.292969 14.863281 C 19.796875 8.6875 24.378906 3.378906 30.121094 0 C 31.09375 12.75 25.824219 26.109375 16.148438 34.464844 " fill-opacity="1" fill-rule="nonzero"/></svg>