<svg xmlns="http://www.w3.org/2000/svg" xmlns:xlink="http://www.w3.org/1999/xlink" width="1080" zoomAndPan="magnify" viewBox="0 0 810 809.999993" height="1080" preserveAspectRatio="xMidYMid meet" version="1.0"><defs><clipPath id="cd4c16b5ad"><path d="M 263.1875 197.257812 L 729 197.257812 L 729 663.070312 L 263.1875 663.070312 Z M 263.1875 197.257812 " clip-rule="nonzero"/></clipPath><clipPath id="ae3d112013"><path d="M 496.09375 197.257812 L 570.203125 356.054688 L 729 430.164062 L 570.203125 504.273438 L 496.09375 663.070312 L 421.984375 504.273438 L 263.1875 430.164062 L 421.984375 356.054688 Z M 496.09375 197.257812 " clip-rule="nonzero"/></clipPath><clipPath id="df6a0dfab9"><path d="M 81 526.5 L 277.210938 526.5 L 277.210938 722.710938 L 81 722.710938 Z M 81 526.5 " clip-rule="nonzero"/></clipPath><clipPath id="7b7804a76f"><path d="M 179.105469 526.5 L 210.324219 593.390625 L 277.210938 624.605469 L 210.324219 655.824219 L 179.105469 722.710938 L 147.890625 655.824219 L 81 624.605469 L 147.890625 593.390625 Z M 179.105469 526.5 " clip-rule="nonzero"/></clipPath><clipPath id="bd4eea8ba1"><path d="M 81 78.597656 L 351.585938 78.597656 L 351.585938 349.1875 L 81 349.1875 Z M 81 78.597656 " clip-rule="nonzero"/></clipPath><clipPath id="e38805ed46"><path d="M 216.292969 78.597656 L 259.34375 170.84375 L 351.585938 213.890625 L 259.34375 256.941406 L 216.292969 349.1875 L 173.242188 256.941406 L 81 213.890625 L 173.242188 170.84375 Z M 216.292969 78.597656 " clip-rule="nonzero"/></clipPath></defs><g clip-path="url(#cd4c16b5ad)"><g clip-path="url(#ae3d112013)"><path fill="#000000" d="M 263.1875 197.257812 L 729 197.257812 L 729 663.070312 L 263.1875 663.070312 Z M 263.1875 197.257812 " fill-opacity="1" fill-rule="nonzero"/></g></g><g clip-path="url(#df6a0dfab9)"><g clip-path="url(#7b7804a76f)"><path fill="#000000" d="M 81 526.5 L 277.210938 526.5 L 277.210938 722.710938 L 81 722.710938 Z M 81 526.5 " fill-opacity="1" fill-rule="nonzero"/></g></g><g clip-path="url(#bd4eea8ba1)"><g clip-path="url(#e38805ed46)"><path fill="#000000" d="M 81 78.597656 L 351.585938 78.597656 L 351.585938 349.1875 L 81 349.1875 Z M 81 78.597656 " fill-opacity="1" fill-rule="nonzero"/></g></g></svg>